<svg xmlns="http://www.w3.org/2000/svg" viewBox="0 0 1200 300"><rect width="1200" height="300" fill="#071426"/><text x="50" y="48" fill="#67f5ff" font-family="monospace" font-size="15">DEVELOPMENT_LOOP / ITERATION ENGINE</text><path d="M50 68H1150" stroke="#245a79"/><g font-family="monospace" font-size="16" text-anchor="middle"><g fill="#ecffff" stroke="#2c8cff"><rect x="55" y="130" width="120" height="60" rx="30" fill="#0d3855"/><rect x="195" y="130" width="120" height="60" rx="30" fill="#0d3855"/><rect x="335" y="130" width="120" height="60" rx="30" fill="#0d3855"/><rect x="475" y="130" width="120" height="60" rx="30" fill="#0d3855"/><rect x="615" y="130" width="120" height="60" rx="30" fill="#0d3855"/><rect x="755" y="130" width="120" height="60" rx="30" fill="#0d3855"/><rect x="895" y="130" width="120" height="60" rx="30" fill="#0d3855"/><rect x="1035" y="130" width="120" height="60" rx="30" fill="#0d3855"/></g><g fill="#67f5ff"><text x="115" y="166">IDEA</text><text x="255" y="166">DESIGN</text><text x="395" y="166">CODE</text><text x="535" y="166">TEST</text><text x="675" y="166">DEBUG</text><text x="815" y="166">IMPROVE</text><text x="955" y="166">DEPLOY</text><text x="1095" y="166">REPEAT</text></g></g><path d="M80 225C300 275 900 275 1120 225" fill="none" stroke="#67f5ff" stroke-dasharray="4 12"><animate attributeName="stroke-dashoffset" from="0" to="-120" dur="4s" repeatCount="indefinite"/></path></svg>